<svg xmlns="http://www.w3.org/2000/svg" viewBox="0 0 250 508.08"><defs><style>.cls-1{fill:#ff2b80;}.cls-2{fill:#ddd;}.cls-3{fill:#d66ba6;}.cls-4{fill:#fde;}</style></defs><title>banner-rocket</title><g id="Layer_2" data-name="Layer 2"><g id="Layer_10" data-name="Layer 10"><rect class="cls-1" x="117" y="435.08" width="16" height="73" rx="8"/><path class="cls-1" d="M55,280.08s-55,46-55,96c0,39.82,14,86,19.64,103.13a10,10,0,0,0,9.49,6.87h0a2.8,2.8,0,0,0,2.81-2.84C31.74,466,32.89,376.08,79,376.08Z"/><path class="cls-1" d="M195,280.08s55,46,55,96c0,39.82-14,86-19.64,103.13a10,10,0,0,1-9.49,6.87h0a2.8,2.8,0,0,1-2.81-2.84c.2-17.23-.95-107.16-47.06-107.16Z"/></g><g id="body"><path class="cls-2" d="M50.45,252A479.87,479.87,0,0,0,88.76,440.48a180.43,180.43,0,0,0,75.84.14A479.67,479.67,0,0,0,203.41,251,479.16,479.16,0,0,0,135.8,4.85a10,10,0,0,0-17.12,0A479.14,479.14,0,0,0,50.45,252Z"/></g><g id="bottom-2"><path class="cls-3" d="M127,402.58a179.43,179.43,0,0,1-55.28-8.69,479.12,479.12,0,0,0,17,46.59,180.43,180.43,0,0,0,75.84.14,480.28,480.28,0,0,0,17.17-46.56A179.6,179.6,0,0,1,127,402.58Z"/></g><g id="bottom-1"><path class="cls-1" d="M71.72,393.89q4,12.94,8.68,25.57a180.42,180.42,0,0,0,92.62.15q4.71-12.62,8.75-25.55a180.24,180.24,0,0,1-110-.17Z"/></g><g id="tip"><path class="cls-1" d="M127,105.58A179.35,179.35,0,0,0,178.59,98,479.73,479.73,0,0,0,135.81,4.87a10,10,0,0,0-17.15,0A479.06,479.06,0,0,0,75.59,98.09,179.53,179.53,0,0,0,127,105.58Z"/></g><g id="mirror"><circle class="cls-1" cx="127" cy="204.08" r="48.5"/><circle class="cls-4" cx="127" cy="204.08" r="34.5"/></g></g></svg>