<svg xmlns="http://www.w3.org/2000/svg" viewBox="0 0 528 354"><defs><style>.cls-1{fill:#888;}.cls-2{fill:#777;}</style></defs><title>banner-smoke-2</title><g id="Layer_2" data-name="Layer 2"><g id="Layer_2-2" data-name="Layer 2"><path class="cls-1" d="M477.89,261.63a74,74,0,0,0-32.79-67.25A33.43,33.43,0,0,0,452,174.5c0-10.67-5.58-20.5-14.94-28.35,1-12.82-1-28.32-6.13-44.56A22.14,22.14,0,0,0,434,90.5c0-10.39-7.67-19.61-19.5-25.34a127.23,127.23,0,0,0-20.67-26.25A21.88,21.88,0,0,0,396,29.5C396,13.21,377.42,0,354.5,0S313,13.21,313,29.5a21.33,21.33,0,0,0,.68,5.3c-28.83,3.63-50.54,19.26-50.67,38A68.59,68.59,0,0,0,252.5,72c-31,0-56.89,20.83-63.72,48.82A20.3,20.3,0,0,0,180.5,119c-19.61,0-35.5,29.55-35.5,66,0,.68,0,1.34,0,2a81.92,81.92,0,0,0-25.53-4C82.86,183,53.15,206.39,53,235.29,21.72,244.46,0,264.61,0,288c0,32,40.74,58,91,58a140.82,140.82,0,0,0,22.73-1.82A67.86,67.86,0,0,0,149.5,354c15.79,0,30.11-5,40.64-13.21C207.32,349,230.71,354,256.5,354c21.69,0,41.68-3.56,57.71-9.55,22.11,6,49.12,9.55,78.29,9.55,74.83,0,135.5-23.28,135.5-52C528,285.7,508.46,271.16,477.89,261.63Z"/><path class="cls-2" d="M200.18,161S236,189,293,161C293,161,245.35,199,200.18,161Z"/><path class="cls-2" d="M218.78,228s38.37,35,96.79,7C315.57,235,261.56,273,218.78,228Z"/><path class="cls-2" d="M344,183s25,11,48,2C392,185,372,200,344,183Z"/><path class="cls-2" d="M80,256s16,15,53,9c0,0,16,20.54,54,9.77,0,0-32,17.23-54-5.77C133,269,97,273,80,256Z"/><path class="cls-2" d="M290,161s17,16,46,11C336,172,308,183,290,161Z"/><path class="cls-2" d="M286.13,81S298,89,313,81c0,0,21,13,40,1,0,0-12,18-40,1C313,83,298.25,92,286.13,81Z"/><path class="cls-2" d="M275,284.31s38.94,16,71,8.84c0,0,33,15.85,60,4.85,0,0,44,12,64-10,0,0-16,28-63,14,0,0-33,15-61-5C346,297,303,305.61,275,284.31Z"/></g></g></svg>