<svg xmlns="http://www.w3.org/2000/svg" xmlns:xlink="http://www.w3.org/1999/xlink" viewBox="0 0 800 289"><defs><style>.cls-1{fill:none;}.cls-2{clip-path:url(#clip-path);}.cls-3{fill:url(#linear-gradient);}</style><clipPath id="clip-path"><path class="cls-1" d="M63.45,193.84a45.67,45.67,0,0,0,6.61-2.24l-1.57,9.85a32,32,0,0,1-6.6,2.13,39.63,39.63,0,0,1-8.17.78q-11.86,0-17.79-6.83T30,176.16V38.77H41.19v137q0,10.29,3.58,14.54T56,194.51A33.19,33.19,0,0,0,63.45,193.84Zm119.16.45a18.8,18.8,0,0,0,8-1.57l-.67,8.95a20.91,20.91,0,0,1-9.84,2,23.09,23.09,0,0,1-9.63-2,16.15,16.15,0,0,1-7.27-6.71,22.89,22.89,0,0,1-2.73-10.5,28.93,28.93,0,0,1-5.77,7.48,43.05,43.05,0,0,1-15.78,9.4,55.78,55.78,0,0,1-17.9,3A49.56,49.56,0,0,1,102.28,201a29.32,29.32,0,0,1-13-9.73q-4.71-6.37-4.7-15.78Q84.6,163,93,155.24t23.61-10.63l44.08-8.73V128.5q0-14.55-7.83-22.6t-22.38-8.06q-12.75,0-21.93,5.49T94.89,121.56l-9.17-5.81a40,40,0,0,1,16.44-20.48Q113.7,88,130.69,88a50.27,50.27,0,0,1,21.6,4.36,32.71,32.71,0,0,1,14.43,12.87q5.15,8.51,5.15,21.26v55.94Q171.87,194.3,182.61,194.29Zm-25.29-17.12a28.84,28.84,0,0,0,3.36-14.43V145.28l-38.49,7.61q-13.2,2.69-19.69,7.83A16.79,16.79,0,0,0,96,174.6Q96,184,103,189.25t19.69,5.26a50.86,50.86,0,0,0,13.2-1.79,39.84,39.84,0,0,0,12.42-5.7A29.43,29.43,0,0,0,157.32,177.17ZM288.23,92.7A49.8,49.8,0,0,0,266.07,88a53.56,53.56,0,0,0-18.79,3.24,39.81,39.81,0,0,0-15,9.74,40.33,40.33,0,0,0-7.79,11.6l-.72-22.34H213.71V202.12H224.9V139q0-13.2,5.71-22.38a38.52,38.52,0,0,1,14.77-14A41.18,41.18,0,0,1,265,97.84q14.54,0,23.6,8.51t9.07,26.85v68.92h11.18v-72.5q0-13.87-5.48-23.05A35.32,35.32,0,0,0,288.23,92.7Zm151.94-23,2.68,9.84h-1.12q-11,0-16.89,5.71C421.4,88.5,419.47,93,419,98.58a33.69,33.69,0,0,1,6.16,6.76,33,33,0,0,1,5.6,19.13,33.68,33.68,0,0,1-5.6,19.13,36.3,36.3,0,0,1-15.77,13A56.37,56.37,0,0,1,386,161.17a69.34,69.34,0,0,1-14.71-1.45,28,28,0,0,0-11.58,4.47q-6.15,4.37-6.15,11.3,0,7.6,5.93,11.41t15.1,3.81h30.21q16.56,0,26,6.93a22,22,0,0,1,9.4,18.58,25.94,25.94,0,0,1-6.83,17.9q-6.82,7.6-18.68,11.86a80.13,80.13,0,0,1-27.08,4.25q-25.29,0-38.71-8.61T335.44,220a22.49,22.49,0,0,1,6.83-16.33c3.7-3.77,8.84-6.27,15.36-7.57a32.39,32.39,0,0,1-8.87-5.41q-5.49-4.69-5.49-13.43A19.12,19.12,0,0,1,350.32,162a28.18,28.18,0,0,1,11-5.53,37.69,37.69,0,0,1-8.52-5.43q-12-10.19-12-26.52a32.53,32.53,0,0,1,5.71-19.13,37.78,37.78,0,0,1,15.89-12.75Q372.58,88,386,88a56.37,56.37,0,0,1,23.39,4.59c.87.39,1.72.81,2.55,1.24a27.51,27.51,0,0,1,3.38-11,25.21,25.21,0,0,1,9.84-9.73,28.66,28.66,0,0,1,14.1-3.47h.9ZM370.35,200.33q-10.52,0-17.45,4.92A15.39,15.39,0,0,0,346,218.46q0,10.06,11.08,16.22t30.54,6.15q13.2,0,22.6-3.13t14.43-8.39a16.6,16.6,0,0,0,5-11.75q0-7.83-6.83-12.53t-20.69-4.7Zm49-75.86a24.2,24.2,0,0,0-9.29-19.8q-9.29-7.5-24.06-7.5t-24.16,7.5a24.08,24.08,0,0,0-9.4,19.8,24.38,24.38,0,0,0,9.4,19.92Q371.24,152,386,152t24.06-7.61A24.51,24.51,0,0,0,419.36,124.47Zm124.86,30a42.24,42.24,0,0,1-2.8,15.33,39.82,39.82,0,0,1-7.94,12.86,36.09,36.09,0,0,1-12.42,8.73,40.6,40.6,0,0,1-16.23,3.13q-15.21,0-23.6-7.83t-8.39-25.28V90.24H461.65v73.84q0,13.65,5.26,22.71a31.85,31.85,0,0,0,14.43,13.32,49,49,0,0,0,20.81,4.25q15.44,0,26.63-6.72a38.24,38.24,0,0,0,16.11-18.57l.45,23.05h10.07V90.24H544.22Zm100.36,37.48a27.14,27.14,0,0,1-11.08,2.12q-9.62,0-14.65-5.48t-5-16V99.86h41.85V90.24H613.81V59.13l-11.19,3.13v28H580.25v9.62h22.37v74.29q0,10.29,3.7,17a23.1,23.1,0,0,0,10.4,10,35.12,35.12,0,0,0,15.44,3.25,39.32,39.32,0,0,0,14.55-2.57A31.33,31.33,0,0,0,657.45,195l-4.26-9.17A26.53,26.53,0,0,1,644.58,191.94ZM685.19,49.73a8.87,8.87,0,0,0-9.4,9.4,9.41,9.41,0,1,0,18.8,0,8.85,8.85,0,0,0-9.4-9.4ZM679.6,202.12h11.19V90.24H679.6Zm83.8-8.28a33.28,33.28,0,0,1-7.5.67q-7.6,0-11.19-4.25t-3.58-14.54V38.77H730V176.16q0,14.55,5.92,21.37t17.79,6.83a39.56,39.56,0,0,0,8.17-.78,32,32,0,0,0,6.6-2.13L770,191.6A46,46,0,0,1,763.4,193.84Z"/></clipPath><linearGradient id="linear-gradient" x1="399.52" y1="38.37" x2="399.52" y2="249.9" gradientUnits="userSpaceOnUse"><stop offset="0" stop-color="#ff208b"/><stop offset="1" stop-color="#2b80ff"/></linearGradient></defs><g id="Layer_2" data-name="Layer 2"><g id="Layer_1-2" data-name="Layer 1"><rect class="cls-1" width="800" height="289"/><g class="cls-2"><rect class="cls-3" x="29.35" y="38.37" width="740.33" height="211.52"/></g></g></g></svg>